<mxfile host="app.diagrams.net" agent="Mozilla/5.0 (Windows NT 10.0; Win64; x64) AppleWebKit/537.36 (KHTML, like Gecko) Chrome/131.0.0.0 Safari/537.36" version="26.0.4">
  <diagram name="Halaman-1" id="yqqoTtijhF60EL7vFrF1">
    <mxGraphModel dx="1430" dy="813" grid="1" gridSize="10" guides="1" tooltips="1" connect="1" arrows="1" fold="1" page="1" pageScale="1" pageWidth="827" pageHeight="1169" math="0" shadow="0">
      <root>
        <mxCell id="0" />
        <mxCell id="1" parent="0" />
        <mxCell id="uRYimrMOGZ6g-n-OhhIQ-1" value="x" style="text;html=1;align=center;verticalAlign=middle;whiteSpace=wrap;rounded=0;" vertex="1" parent="1">
          <mxGeometry x="10" y="40" width="60" height="30" as="geometry" />
        </mxCell>
        <mxCell id="uRYimrMOGZ6g-n-OhhIQ-2" value="y" style="text;html=1;align=center;verticalAlign=middle;whiteSpace=wrap;rounded=0;" vertex="1" parent="1">
          <mxGeometry x="10" y="60" width="60" height="30" as="geometry" />
        </mxCell>
        <mxCell id="uRYimrMOGZ6g-n-OhhIQ-3" value="z" style="text;html=1;align=center;verticalAlign=middle;whiteSpace=wrap;rounded=0;" vertex="1" parent="1">
          <mxGeometry x="10" y="80" width="60" height="30" as="geometry" />
        </mxCell>
        <mxCell id="uRYimrMOGZ6g-n-OhhIQ-4" value="v" style="text;html=1;align=center;verticalAlign=middle;whiteSpace=wrap;rounded=0;" vertex="1" parent="1">
          <mxGeometry x="10" width="60" height="30" as="geometry" />
        </mxCell>
        <mxCell id="uRYimrMOGZ6g-n-OhhIQ-5" value="w" style="text;html=1;align=center;verticalAlign=middle;whiteSpace=wrap;rounded=0;" vertex="1" parent="1">
          <mxGeometry x="10" y="20" width="60" height="30" as="geometry" />
        </mxCell>
        <mxCell id="uRYimrMOGZ6g-n-OhhIQ-6" value="v" style="text;html=1;align=center;verticalAlign=middle;whiteSpace=wrap;rounded=0;" vertex="1" parent="1">
          <mxGeometry x="10" y="120" width="60" height="30" as="geometry" />
        </mxCell>
        <mxCell id="uRYimrMOGZ6g-n-OhhIQ-7" value="w" style="text;html=1;align=center;verticalAlign=middle;whiteSpace=wrap;rounded=0;" vertex="1" parent="1">
          <mxGeometry x="10" y="140" width="60" height="30" as="geometry" />
        </mxCell>
        <mxCell id="uRYimrMOGZ6g-n-OhhIQ-8" value="y" style="text;html=1;align=center;verticalAlign=middle;whiteSpace=wrap;rounded=0;" vertex="1" parent="1">
          <mxGeometry x="10" y="180" width="60" height="30" as="geometry" />
        </mxCell>
        <mxCell id="uRYimrMOGZ6g-n-OhhIQ-9" value="x" style="text;html=1;align=center;verticalAlign=middle;whiteSpace=wrap;rounded=0;" vertex="1" parent="1">
          <mxGeometry x="10" y="160" width="60" height="30" as="geometry" />
        </mxCell>
        <mxCell id="uRYimrMOGZ6g-n-OhhIQ-10" value="z" style="text;html=1;align=center;verticalAlign=middle;whiteSpace=wrap;rounded=0;" vertex="1" parent="1">
          <mxGeometry x="10" y="200" width="60" height="30" as="geometry" />
        </mxCell>
        <mxCell id="uRYimrMOGZ6g-n-OhhIQ-11" value="v" style="text;html=1;align=center;verticalAlign=middle;whiteSpace=wrap;rounded=0;" vertex="1" parent="1">
          <mxGeometry x="10" y="240" width="60" height="30" as="geometry" />
        </mxCell>
        <mxCell id="uRYimrMOGZ6g-n-OhhIQ-12" value="w" style="text;html=1;align=center;verticalAlign=middle;whiteSpace=wrap;rounded=0;" vertex="1" parent="1">
          <mxGeometry x="10" y="260" width="60" height="30" as="geometry" />
        </mxCell>
        <mxCell id="uRYimrMOGZ6g-n-OhhIQ-13" value="y" style="text;html=1;align=center;verticalAlign=middle;whiteSpace=wrap;rounded=0;" vertex="1" parent="1">
          <mxGeometry x="10" y="300" width="60" height="30" as="geometry" />
        </mxCell>
        <mxCell id="uRYimrMOGZ6g-n-OhhIQ-14" value="x" style="text;html=1;align=center;verticalAlign=middle;whiteSpace=wrap;rounded=0;" vertex="1" parent="1">
          <mxGeometry x="10" y="280" width="60" height="30" as="geometry" />
        </mxCell>
        <mxCell id="uRYimrMOGZ6g-n-OhhIQ-15" value="z" style="text;html=1;align=center;verticalAlign=middle;whiteSpace=wrap;rounded=0;" vertex="1" parent="1">
          <mxGeometry x="10" y="320" width="60" height="30" as="geometry" />
        </mxCell>
        <mxCell id="uRYimrMOGZ6g-n-OhhIQ-27" value="v" style="text;html=1;align=center;verticalAlign=middle;whiteSpace=wrap;rounded=0;" vertex="1" parent="1">
          <mxGeometry x="10" y="360" width="60" height="30" as="geometry" />
        </mxCell>
        <mxCell id="uRYimrMOGZ6g-n-OhhIQ-28" value="w" style="text;html=1;align=center;verticalAlign=middle;whiteSpace=wrap;rounded=0;" vertex="1" parent="1">
          <mxGeometry x="10" y="380" width="60" height="30" as="geometry" />
        </mxCell>
        <mxCell id="uRYimrMOGZ6g-n-OhhIQ-29" value="y" style="text;html=1;align=center;verticalAlign=middle;whiteSpace=wrap;rounded=0;" vertex="1" parent="1">
          <mxGeometry x="10" y="420" width="60" height="30" as="geometry" />
        </mxCell>
        <mxCell id="uRYimrMOGZ6g-n-OhhIQ-30" value="x" style="text;html=1;align=center;verticalAlign=middle;whiteSpace=wrap;rounded=0;" vertex="1" parent="1">
          <mxGeometry x="10" y="400" width="60" height="30" as="geometry" />
        </mxCell>
        <mxCell id="uRYimrMOGZ6g-n-OhhIQ-31" value="z" style="text;html=1;align=center;verticalAlign=middle;whiteSpace=wrap;rounded=0;" vertex="1" parent="1">
          <mxGeometry x="10" y="440" width="60" height="30" as="geometry" />
        </mxCell>
        <mxCell id="uRYimrMOGZ6g-n-OhhIQ-32" value="" style="endArrow=none;html=1;rounded=0;" edge="1" parent="1">
          <mxGeometry width="50" height="50" relative="1" as="geometry">
            <mxPoint x="89.99985207757078" y="14.961539599403295" as="sourcePoint" />
            <mxPoint x="110" y="14.659999999999997" as="targetPoint" />
          </mxGeometry>
        </mxCell>
        <mxCell id="uRYimrMOGZ6g-n-OhhIQ-33" value="" style="endArrow=none;html=1;rounded=0;" edge="1" parent="1">
          <mxGeometry width="50" height="50" relative="1" as="geometry">
            <mxPoint x="50" y="34.66" as="sourcePoint" />
            <mxPoint x="110" y="34.66" as="targetPoint" />
          </mxGeometry>
        </mxCell>
        <mxCell id="uRYimrMOGZ6g-n-OhhIQ-34" value="" style="endArrow=none;html=1;rounded=0;" edge="1" parent="1">
          <mxGeometry width="50" height="50" relative="1" as="geometry">
            <mxPoint x="50" y="54.66" as="sourcePoint" />
            <mxPoint x="110" y="54.66" as="targetPoint" />
          </mxGeometry>
        </mxCell>
        <mxCell id="uRYimrMOGZ6g-n-OhhIQ-35" value="" style="endArrow=none;html=1;rounded=0;" edge="1" parent="1">
          <mxGeometry width="50" height="50" relative="1" as="geometry">
            <mxPoint x="50" y="74.66" as="sourcePoint" />
            <mxPoint x="110" y="74.66" as="targetPoint" />
          </mxGeometry>
        </mxCell>
        <mxCell id="uRYimrMOGZ6g-n-OhhIQ-36" value="" style="endArrow=none;html=1;rounded=0;" edge="1" parent="1">
          <mxGeometry width="50" height="50" relative="1" as="geometry">
            <mxPoint x="50" y="94.66" as="sourcePoint" />
            <mxPoint x="110" y="94.66" as="targetPoint" />
          </mxGeometry>
        </mxCell>
        <mxCell id="uRYimrMOGZ6g-n-OhhIQ-42" value="" style="endArrow=none;html=1;rounded=0;" edge="1" parent="1">
          <mxGeometry width="50" height="50" relative="1" as="geometry">
            <mxPoint x="50" y="194.66" as="sourcePoint" />
            <mxPoint x="110" y="194.66" as="targetPoint" />
          </mxGeometry>
        </mxCell>
        <mxCell id="uRYimrMOGZ6g-n-OhhIQ-43" value="" style="endArrow=none;html=1;rounded=0;" edge="1" parent="1">
          <mxGeometry width="50" height="50" relative="1" as="geometry">
            <mxPoint x="50" y="214.66" as="sourcePoint" />
            <mxPoint x="110" y="214.66" as="targetPoint" />
          </mxGeometry>
        </mxCell>
        <mxCell id="uRYimrMOGZ6g-n-OhhIQ-44" value="" style="endArrow=none;html=1;rounded=0;" edge="1" parent="1">
          <mxGeometry width="50" height="50" relative="1" as="geometry">
            <mxPoint x="50" y="174.66" as="sourcePoint" />
            <mxPoint x="110" y="174.66" as="targetPoint" />
          </mxGeometry>
        </mxCell>
        <mxCell id="uRYimrMOGZ6g-n-OhhIQ-45" value="" style="endArrow=none;html=1;rounded=0;" edge="1" parent="1">
          <mxGeometry width="50" height="50" relative="1" as="geometry">
            <mxPoint x="50" y="154.66" as="sourcePoint" />
            <mxPoint x="110" y="154.66" as="targetPoint" />
          </mxGeometry>
        </mxCell>
        <mxCell id="uRYimrMOGZ6g-n-OhhIQ-46" value="" style="endArrow=none;html=1;rounded=0;" edge="1" parent="1">
          <mxGeometry width="50" height="50" relative="1" as="geometry">
            <mxPoint x="50" y="134.66" as="sourcePoint" />
            <mxPoint x="110" y="134.66" as="targetPoint" />
          </mxGeometry>
        </mxCell>
        <mxCell id="uRYimrMOGZ6g-n-OhhIQ-47" value="" style="endArrow=none;html=1;rounded=0;" edge="1" parent="1">
          <mxGeometry width="50" height="50" relative="1" as="geometry">
            <mxPoint x="50" y="314.65999999999997" as="sourcePoint" />
            <mxPoint x="110" y="314.65999999999997" as="targetPoint" />
          </mxGeometry>
        </mxCell>
        <mxCell id="uRYimrMOGZ6g-n-OhhIQ-48" value="" style="endArrow=none;html=1;rounded=0;" edge="1" parent="1">
          <mxGeometry width="50" height="50" relative="1" as="geometry">
            <mxPoint x="50" y="334.65999999999997" as="sourcePoint" />
            <mxPoint x="110" y="334.65999999999997" as="targetPoint" />
          </mxGeometry>
        </mxCell>
        <mxCell id="uRYimrMOGZ6g-n-OhhIQ-49" value="" style="endArrow=none;html=1;rounded=0;" edge="1" parent="1">
          <mxGeometry width="50" height="50" relative="1" as="geometry">
            <mxPoint x="50" y="294.65999999999997" as="sourcePoint" />
            <mxPoint x="110" y="294.65999999999997" as="targetPoint" />
          </mxGeometry>
        </mxCell>
        <mxCell id="uRYimrMOGZ6g-n-OhhIQ-50" value="" style="endArrow=none;html=1;rounded=0;" edge="1" parent="1">
          <mxGeometry width="50" height="50" relative="1" as="geometry">
            <mxPoint x="50" y="274.65999999999997" as="sourcePoint" />
            <mxPoint x="110" y="274.65999999999997" as="targetPoint" />
          </mxGeometry>
        </mxCell>
        <mxCell id="uRYimrMOGZ6g-n-OhhIQ-51" value="" style="endArrow=none;html=1;rounded=0;" edge="1" parent="1">
          <mxGeometry width="50" height="50" relative="1" as="geometry">
            <mxPoint x="50" y="254.66" as="sourcePoint" />
            <mxPoint x="110" y="254.66" as="targetPoint" />
          </mxGeometry>
        </mxCell>
        <mxCell id="uRYimrMOGZ6g-n-OhhIQ-52" value="" style="endArrow=none;html=1;rounded=0;" edge="1" parent="1">
          <mxGeometry width="50" height="50" relative="1" as="geometry">
            <mxPoint x="50" y="434.65999999999997" as="sourcePoint" />
            <mxPoint x="110" y="434.65999999999997" as="targetPoint" />
          </mxGeometry>
        </mxCell>
        <mxCell id="uRYimrMOGZ6g-n-OhhIQ-53" value="" style="endArrow=none;html=1;rounded=0;" edge="1" parent="1">
          <mxGeometry width="50" height="50" relative="1" as="geometry">
            <mxPoint x="50" y="454.65999999999997" as="sourcePoint" />
            <mxPoint x="110" y="454.65999999999997" as="targetPoint" />
          </mxGeometry>
        </mxCell>
        <mxCell id="uRYimrMOGZ6g-n-OhhIQ-54" value="" style="endArrow=none;html=1;rounded=0;" edge="1" parent="1">
          <mxGeometry width="50" height="50" relative="1" as="geometry">
            <mxPoint x="50" y="414.65999999999997" as="sourcePoint" />
            <mxPoint x="110" y="414.65999999999997" as="targetPoint" />
          </mxGeometry>
        </mxCell>
        <mxCell id="uRYimrMOGZ6g-n-OhhIQ-55" value="" style="endArrow=none;html=1;rounded=0;" edge="1" parent="1">
          <mxGeometry width="50" height="50" relative="1" as="geometry">
            <mxPoint x="50" y="394.65999999999997" as="sourcePoint" />
            <mxPoint x="110" y="394.65999999999997" as="targetPoint" />
          </mxGeometry>
        </mxCell>
        <mxCell id="uRYimrMOGZ6g-n-OhhIQ-56" value="" style="endArrow=none;html=1;rounded=0;" edge="1" parent="1">
          <mxGeometry width="50" height="50" relative="1" as="geometry">
            <mxPoint x="50" y="374.65999999999997" as="sourcePoint" />
            <mxPoint x="110" y="374.65999999999997" as="targetPoint" />
          </mxGeometry>
        </mxCell>
        <mxCell id="uRYimrMOGZ6g-n-OhhIQ-57" value="" style="shape=or;whiteSpace=wrap;html=1;" vertex="1" parent="1">
          <mxGeometry x="110" y="15" width="60" height="80" as="geometry" />
        </mxCell>
        <mxCell id="uRYimrMOGZ6g-n-OhhIQ-58" value="" style="shape=or;whiteSpace=wrap;html=1;" vertex="1" parent="1">
          <mxGeometry x="110" y="135" width="60" height="80" as="geometry" />
        </mxCell>
        <mxCell id="uRYimrMOGZ6g-n-OhhIQ-59" value="" style="shape=or;whiteSpace=wrap;html=1;" vertex="1" parent="1">
          <mxGeometry x="110" y="255" width="60" height="80" as="geometry" />
        </mxCell>
        <mxCell id="uRYimrMOGZ6g-n-OhhIQ-60" value="" style="shape=or;whiteSpace=wrap;html=1;" vertex="1" parent="1">
          <mxGeometry x="110" y="375" width="60" height="80" as="geometry" />
        </mxCell>
        <mxCell id="uRYimrMOGZ6g-n-OhhIQ-65" value="" style="endArrow=none;html=1;rounded=0;" edge="1" parent="1">
          <mxGeometry width="50" height="50" relative="1" as="geometry">
            <mxPoint x="50" y="14.659999999999997" as="sourcePoint" />
            <mxPoint x="80.00007547226215" y="14.972527887210248" as="targetPoint" />
          </mxGeometry>
        </mxCell>
        <mxCell id="uRYimrMOGZ6g-n-OhhIQ-66" value="" style="triangle;whiteSpace=wrap;html=1;" vertex="1" parent="1">
          <mxGeometry x="70" y="30" width="10" height="10" as="geometry" />
        </mxCell>
        <mxCell id="uRYimrMOGZ6g-n-OhhIQ-67" value="" style="ellipse;whiteSpace=wrap;html=1;aspect=fixed;" vertex="1" parent="1">
          <mxGeometry x="80" y="30" width="10" height="10" as="geometry" />
        </mxCell>
        <mxCell id="uRYimrMOGZ6g-n-OhhIQ-68" value="" style="triangle;whiteSpace=wrap;html=1;" vertex="1" parent="1">
          <mxGeometry x="70" y="50" width="10" height="10" as="geometry" />
        </mxCell>
        <mxCell id="uRYimrMOGZ6g-n-OhhIQ-69" value="" style="ellipse;whiteSpace=wrap;html=1;aspect=fixed;" vertex="1" parent="1">
          <mxGeometry x="80" y="50" width="10" height="10" as="geometry" />
        </mxCell>
        <mxCell id="uRYimrMOGZ6g-n-OhhIQ-70" value="" style="triangle;whiteSpace=wrap;html=1;" vertex="1" parent="1">
          <mxGeometry x="70" y="70" width="10" height="10" as="geometry" />
        </mxCell>
        <mxCell id="uRYimrMOGZ6g-n-OhhIQ-71" value="" style="ellipse;whiteSpace=wrap;html=1;aspect=fixed;" vertex="1" parent="1">
          <mxGeometry x="80" y="70" width="10" height="10" as="geometry" />
        </mxCell>
        <mxCell id="uRYimrMOGZ6g-n-OhhIQ-72" value="" style="ellipse;whiteSpace=wrap;html=1;aspect=fixed;" vertex="1" parent="1">
          <mxGeometry x="80" y="10" width="10" height="10" as="geometry" />
        </mxCell>
        <mxCell id="uRYimrMOGZ6g-n-OhhIQ-73" value="" style="triangle;whiteSpace=wrap;html=1;" vertex="1" parent="1">
          <mxGeometry x="70" y="10" width="10" height="10" as="geometry" />
        </mxCell>
        <mxCell id="uRYimrMOGZ6g-n-OhhIQ-74" value="" style="ellipse;whiteSpace=wrap;html=1;aspect=fixed;" vertex="1" parent="1">
          <mxGeometry x="80" y="90" width="10" height="10" as="geometry" />
        </mxCell>
        <mxCell id="uRYimrMOGZ6g-n-OhhIQ-75" value="" style="triangle;whiteSpace=wrap;html=1;" vertex="1" parent="1">
          <mxGeometry x="70" y="90" width="10" height="10" as="geometry" />
        </mxCell>
        <mxCell id="uRYimrMOGZ6g-n-OhhIQ-76" value="" style="ellipse;whiteSpace=wrap;html=1;aspect=fixed;" vertex="1" parent="1">
          <mxGeometry x="80" y="130" width="10" height="10" as="geometry" />
        </mxCell>
        <mxCell id="uRYimrMOGZ6g-n-OhhIQ-77" value="" style="triangle;whiteSpace=wrap;html=1;" vertex="1" parent="1">
          <mxGeometry x="70" y="130" width="10" height="10" as="geometry" />
        </mxCell>
        <mxCell id="uRYimrMOGZ6g-n-OhhIQ-78" value="" style="ellipse;whiteSpace=wrap;html=1;aspect=fixed;" vertex="1" parent="1">
          <mxGeometry x="80" y="150" width="10" height="10" as="geometry" />
        </mxCell>
        <mxCell id="uRYimrMOGZ6g-n-OhhIQ-79" value="" style="triangle;whiteSpace=wrap;html=1;" vertex="1" parent="1">
          <mxGeometry x="70" y="150" width="10" height="10" as="geometry" />
        </mxCell>
        <mxCell id="uRYimrMOGZ6g-n-OhhIQ-80" value="" style="ellipse;whiteSpace=wrap;html=1;aspect=fixed;" vertex="1" parent="1">
          <mxGeometry x="80" y="210" width="10" height="10" as="geometry" />
        </mxCell>
        <mxCell id="uRYimrMOGZ6g-n-OhhIQ-81" value="" style="triangle;whiteSpace=wrap;html=1;" vertex="1" parent="1">
          <mxGeometry x="70" y="210" width="10" height="10" as="geometry" />
        </mxCell>
        <mxCell id="uRYimrMOGZ6g-n-OhhIQ-82" value="" style="ellipse;whiteSpace=wrap;html=1;aspect=fixed;" vertex="1" parent="1">
          <mxGeometry x="80" y="250" width="10" height="10" as="geometry" />
        </mxCell>
        <mxCell id="uRYimrMOGZ6g-n-OhhIQ-83" value="" style="triangle;whiteSpace=wrap;html=1;" vertex="1" parent="1">
          <mxGeometry x="70" y="250" width="10" height="10" as="geometry" />
        </mxCell>
        <mxCell id="uRYimrMOGZ6g-n-OhhIQ-84" value="&lt;div&gt;&lt;br/&gt;&lt;/div&gt;" style="ellipse;whiteSpace=wrap;html=1;aspect=fixed;" vertex="1" parent="1">
          <mxGeometry x="80" y="270" width="10" height="10" as="geometry" />
        </mxCell>
        <mxCell id="uRYimrMOGZ6g-n-OhhIQ-85" value="" style="triangle;whiteSpace=wrap;html=1;" vertex="1" parent="1">
          <mxGeometry x="70" y="270" width="10" height="10" as="geometry" />
        </mxCell>
        <mxCell id="uRYimrMOGZ6g-n-OhhIQ-86" value="&lt;div&gt;&lt;br/&gt;&lt;/div&gt;" style="ellipse;whiteSpace=wrap;html=1;aspect=fixed;" vertex="1" parent="1">
          <mxGeometry x="80" y="330" width="10" height="10" as="geometry" />
        </mxCell>
        <mxCell id="uRYimrMOGZ6g-n-OhhIQ-87" value="" style="triangle;whiteSpace=wrap;html=1;" vertex="1" parent="1">
          <mxGeometry x="70" y="330" width="10" height="10" as="geometry" />
        </mxCell>
        <mxCell id="uRYimrMOGZ6g-n-OhhIQ-88" value="" style="triangle;whiteSpace=wrap;html=1;" vertex="1" parent="1">
          <mxGeometry x="70" y="170" width="10" height="10" as="geometry" />
        </mxCell>
        <mxCell id="uRYimrMOGZ6g-n-OhhIQ-89" value="" style="ellipse;whiteSpace=wrap;html=1;aspect=fixed;" vertex="1" parent="1">
          <mxGeometry x="80" y="170" width="10" height="10" as="geometry" />
        </mxCell>
        <mxCell id="uRYimrMOGZ6g-n-OhhIQ-90" value="" style="triangle;whiteSpace=wrap;html=1;" vertex="1" parent="1">
          <mxGeometry x="70" y="370" width="10" height="10" as="geometry" />
        </mxCell>
        <mxCell id="uRYimrMOGZ6g-n-OhhIQ-91" value="&lt;div&gt;&lt;br/&gt;&lt;/div&gt;" style="ellipse;whiteSpace=wrap;html=1;aspect=fixed;" vertex="1" parent="1">
          <mxGeometry x="80" y="370" width="10" height="10" as="geometry" />
        </mxCell>
        <mxCell id="uRYimrMOGZ6g-n-OhhIQ-92" value="" style="triangle;whiteSpace=wrap;html=1;" vertex="1" parent="1">
          <mxGeometry x="70" y="390" width="10" height="10" as="geometry" />
        </mxCell>
        <mxCell id="uRYimrMOGZ6g-n-OhhIQ-93" value="&lt;div&gt;&lt;br/&gt;&lt;/div&gt;" style="ellipse;whiteSpace=wrap;html=1;aspect=fixed;" vertex="1" parent="1">
          <mxGeometry x="80" y="390" width="10" height="10" as="geometry" />
        </mxCell>
        <mxCell id="uRYimrMOGZ6g-n-OhhIQ-94" value="" style="triangle;whiteSpace=wrap;html=1;" vertex="1" parent="1">
          <mxGeometry x="70" y="430" width="10" height="10" as="geometry" />
        </mxCell>
        <mxCell id="uRYimrMOGZ6g-n-OhhIQ-95" value="&lt;div&gt;&lt;br/&gt;&lt;/div&gt;" style="ellipse;whiteSpace=wrap;html=1;aspect=fixed;" vertex="1" parent="1">
          <mxGeometry x="80" y="430" width="10" height="10" as="geometry" />
        </mxCell>
        <mxCell id="uRYimrMOGZ6g-n-OhhIQ-96" value="" style="triangle;whiteSpace=wrap;html=1;" vertex="1" parent="1">
          <mxGeometry x="70" y="450" width="10" height="10" as="geometry" />
        </mxCell>
        <mxCell id="uRYimrMOGZ6g-n-OhhIQ-97" value="&lt;div&gt;&lt;br/&gt;&lt;/div&gt;" style="ellipse;whiteSpace=wrap;html=1;aspect=fixed;" vertex="1" parent="1">
          <mxGeometry x="80" y="450" width="10" height="10" as="geometry" />
        </mxCell>
        <mxCell id="uRYimrMOGZ6g-n-OhhIQ-98" value="" style="endArrow=none;html=1;rounded=0;exitX=1;exitY=0.5;exitDx=0;exitDy=0;exitPerimeter=0;" edge="1" parent="1" source="uRYimrMOGZ6g-n-OhhIQ-57">
          <mxGeometry width="50" height="50" relative="1" as="geometry">
            <mxPoint x="210" y="70" as="sourcePoint" />
            <mxPoint x="250" y="55" as="targetPoint" />
          </mxGeometry>
        </mxCell>
      </root>
    </mxGraphModel>
  </diagram>
</mxfile>
